<mxfile host="Electron" agent="Mozilla/5.0 (Windows NT 10.0; Win64; x64) AppleWebKit/537.36 (KHTML, like Gecko) draw.io/26.0.9 Chrome/128.0.6613.186 Electron/32.2.5 Safari/537.36" version="26.0.9">
  <diagram name="Page-1" id="MZVUEPDB9-J9g0SXALMH">
    <mxGraphModel dx="1444" dy="929" grid="1" gridSize="10" guides="1" tooltips="1" connect="1" arrows="1" fold="1" page="1" pageScale="1" pageWidth="1169" pageHeight="827" math="0" shadow="0">
      <root>
        <mxCell id="0" />
        <mxCell id="1" parent="0" />
        <mxCell id="C5iRoFLlnJOWGkb75WR2-2" value="BridgeStation interface template" style="text;html=1;align=center;verticalAlign=middle;whiteSpace=wrap;rounded=0;fontStyle=1;fontSize=18;" vertex="1" parent="1">
          <mxGeometry x="435" y="20" width="300" height="30" as="geometry" />
        </mxCell>
        <mxCell id="C5iRoFLlnJOWGkb75WR2-21" value="Generic template" parent="0" />
        <mxCell id="C5iRoFLlnJOWGkb75WR2-22" value="" style="group" vertex="1" connectable="0" parent="C5iRoFLlnJOWGkb75WR2-21">
          <mxGeometry x="345" y="90" width="480" height="270" as="geometry" />
        </mxCell>
        <mxCell id="C5iRoFLlnJOWGkb75WR2-1" value="" style="rounded=0;whiteSpace=wrap;html=1;fillColor=#000000;" vertex="1" parent="C5iRoFLlnJOWGkb75WR2-22">
          <mxGeometry width="480" height="270" as="geometry" />
        </mxCell>
        <mxCell id="C5iRoFLlnJOWGkb75WR2-3" value="" style="rounded=0;whiteSpace=wrap;html=1;fillColor=#000000;dashed=1;dashPattern=12 12;strokeColor=none;" vertex="1" parent="C5iRoFLlnJOWGkb75WR2-22">
          <mxGeometry width="480" height="20" as="geometry" />
        </mxCell>
        <mxCell id="C5iRoFLlnJOWGkb75WR2-10" value="&lt;font style=&quot;font-size: 8px;&quot;&gt;X&lt;/font&gt;" style="ellipse;whiteSpace=wrap;html=1;aspect=fixed;fillColor=#FF0000;strokeColor=#FF0000;rounded=1;align=center;verticalAlign=middle;spacingTop=-1;spacing=0;fontFamily=Helvetica;fontSize=12;fontColor=#FFFFFF;labelPosition=center;verticalLabelPosition=middle;" vertex="1" parent="C5iRoFLlnJOWGkb75WR2-22">
          <mxGeometry x="465" y="5" width="10" height="10" as="geometry" />
        </mxCell>
        <mxCell id="C5iRoFLlnJOWGkb75WR2-8" value="" style="ellipse;whiteSpace=wrap;html=1;aspect=fixed;fillColor=#CCE5FF;strokeColor=#CCE5FF;" vertex="1" parent="C5iRoFLlnJOWGkb75WR2-22">
          <mxGeometry x="450" y="5" width="10" height="10" as="geometry" />
        </mxCell>
        <mxCell id="C5iRoFLlnJOWGkb75WR2-15" value="&lt;font style=&quot;color: rgb(204, 229, 255);&quot;&gt;Card 1&lt;/font&gt;" style="rounded=1;whiteSpace=wrap;html=1;strokeWidth=2;strokeColor=#CCE5FF;align=left;verticalAlign=top;spacingTop=5;spacingLeft=10;fillColor=#000000;" vertex="1" parent="C5iRoFLlnJOWGkb75WR2-22">
          <mxGeometry x="10" y="35" width="140" height="220" as="geometry" />
        </mxCell>
        <mxCell id="C5iRoFLlnJOWGkb75WR2-18" value="&lt;font style=&quot;color: rgb(204, 229, 255);&quot;&gt;Card 2&lt;/font&gt;" style="rounded=1;whiteSpace=wrap;html=1;strokeWidth=2;strokeColor=#CCE5FF;align=left;verticalAlign=top;spacingTop=5;spacingLeft=10;fillColor=#000000;" vertex="1" parent="C5iRoFLlnJOWGkb75WR2-22">
          <mxGeometry x="170" y="35" width="140" height="220" as="geometry" />
        </mxCell>
        <mxCell id="C5iRoFLlnJOWGkb75WR2-19" value="&lt;font style=&quot;color: rgb(204, 229, 255);&quot;&gt;Card 3&lt;/font&gt;" style="rounded=1;whiteSpace=wrap;html=1;strokeWidth=2;strokeColor=#CCE5FF;align=left;verticalAlign=top;spacingTop=5;spacingLeft=10;fillColor=#000000;" vertex="1" parent="C5iRoFLlnJOWGkb75WR2-22">
          <mxGeometry x="330" y="35" width="140" height="220" as="geometry" />
        </mxCell>
      </root>
    </mxGraphModel>
  </diagram>
</mxfile>
